<?xml version="1.0" encoding="utf-8" ?>
<svg xmlns="http://www.w3.org/2000/svg" xmlns:xlink="http://www.w3.org/1999/xlink" width="1024" height="1024">
	<path fill="#A0C3F7" transform="scale(1.6 1.6)" d="M391.469 502.171C413.933 509.689 434.362 509.598 457.697 509.839L457.675 510.013C456.85 510.334 455.548 509.933 455.379 511C447.709 513.705 423.531 513.029 415.071 513.07L377.455 513.152C382.792 511.28 400.934 513.005 408.049 512.308L408.268 511.482C410.807 511.013 416.247 510.861 417.919 508.874C409.822 506.5 398.146 507.705 391.469 502.171Z"/>
	<path fill="#7294F7" transform="scale(1.6 1.6)" d="M301.737 322.956C326.053 320.954 345.016 340.891 343.428 364.785C342.514 378.548 334.187 386.046 324.533 394.579C321.369 410.528 330.309 436.015 306.328 437.994C281.73 439.699 287.895 409.774 287.543 394.68C283.705 392.568 279.573 390.565 276.124 387.843C252.598 369.273 266.509 326.513 301.737 322.956Z"/>
	<path fill="#7294F7" transform="scale(1.6 1.6)" d="M296.125 73.9361C350.872 69.3667 399.562 101.852 412.423 156.151C414.814 166.241 418.076 180.692 412.094 189.98C406.886 198.066 396.285 200.626 388.296 195.026C380.029 189.231 381.362 179.155 379.803 170.367C371.881 125.721 333.979 100.828 289.762 108.853C274.574 112.635 264.681 116.532 252.88 127.338C224.354 153.46 231.863 187.84 230.308 222.56C218.718 223.003 206.947 221.997 195.401 223.086C195.473 206.015 194.755 181.543 196.44 165.607C201.897 114.012 245.568 78.065 296.125 73.9361Z"/>
	<defs>
		<linearGradient id="gradient_0" gradientUnits="userSpaceOnUse" x1="439.4343" y1="339.33069" x2="440.36667" y2="452.39188">
			<stop offset="0" stop-color="#BFF6F3"/>
			<stop offset="1" stop-color="#8AB6F9"/>
		</linearGradient>
	</defs>
	<path fill="url(#gradient_0)" transform="scale(1.6 1.6)" d="M337.441 427.26C339.034 398.914 345.817 382.177 368.185 362.144C391.694 341.089 411.065 339.089 441.121 339.111C474.07 339.134 502.013 337.481 526.443 364.853C548.627 389.709 553.982 425.416 540.275 455.615C522.784 490.36 492.663 506.794 455.379 511C455.548 509.933 456.85 510.334 457.675 510.013L457.697 509.839C434.362 509.598 413.933 509.689 391.469 502.171C369.49 492.448 354.222 480.42 345.393 456.979C340.161 446.159 341.814 436.857 339.54 427.63L339.233 427.576C338.715 430.688 339.828 435.291 340.266 438.467C339.5 439.55 335.053 441.253 333.688 440.251C333.751 438.365 337.425 431.892 337.857 427.696L337.441 427.26ZM464.005 440.161C472.238 446.968 485.895 445.828 493.971 439.483C502.321 430.796 502.513 415.774 493.655 407.285C472.78 387.279 442.269 417.979 464.005 440.161ZM395.415 441.007C405.303 446.836 418.006 445.005 425.896 436.669C433.04 426.473 431.151 411.445 420.621 404.201C404.091 392.83 383.316 409.26 387.194 427.754C388.704 434.955 390.85 436.011 395.415 441.007Z"/>
	<path fill="#7294F7" transform="scale(1.6 1.6)" d="M425.896 436.669C427.741 441.574 462.286 441.798 464.005 440.161C472.238 446.968 485.895 445.828 493.971 439.483C496.917 446.86 535.621 447.298 541.004 451.982C540.549 453.165 540.309 454.345 540.275 455.615C522.784 490.36 492.663 506.794 455.379 511C455.548 509.933 456.85 510.334 457.675 510.013L457.697 509.839C434.362 509.598 413.933 509.689 391.469 502.171C369.49 492.448 354.222 480.42 345.393 456.979C345.259 455.392 344.867 453.908 344.47 452.373C354.626 447.727 392.738 448.761 395.415 441.007C405.303 446.836 418.006 445.005 425.896 436.669Z"/>
	<defs>
		<linearGradient id="gradient_1" gradientUnits="userSpaceOnUse" x1="114.96327" y1="428.09244" x2="485.83594" y2="316.56427">
			<stop offset="0" stop-color="#7492F9"/>
			<stop offset="1" stop-color="#BEF4F4"/>
		</linearGradient>
	</defs>
	<path fill="url(#gradient_1)" transform="scale(1.6 1.6)" d="M325.498 235.118L377.427 235.175C408.276 235.177 435.936 232.685 459.429 256.506C481.724 279.112 478.843 301.965 478.697 330.315C462.522 329.215 430.292 328.791 414.716 330.506C397.221 332.432 373.874 341.574 361.207 354.179C352.861 324.179 340.652 316.087 314.023 307.583C261.983 302.57 227.609 356.299 261.784 396.432C264.446 399.558 267.212 402.252 270.934 404.074C270.787 418.274 269.878 432.946 280.718 443.909C297.633 461.016 329.084 455.993 336.335 431.172C336.657 430.069 336.895 428.202 337.441 427.26L337.857 427.696C337.425 431.892 333.751 438.365 333.688 440.251C335.053 441.253 339.5 439.55 340.266 438.467C339.828 435.291 338.715 430.688 339.233 427.576L339.54 427.63C341.814 436.857 340.161 446.159 345.393 456.979C354.222 480.42 369.49 492.448 391.469 502.171C398.146 507.705 409.822 506.5 417.919 508.874C416.247 510.861 410.807 511.013 408.268 511.482L408.049 512.308C400.934 513.005 382.792 511.28 377.455 513.152C373.157 513.496 368.774 513.18 364.464 513.177L212.198 513.176C201.177 513.181 189.401 513.928 178.537 511.875C146.647 505.849 123.868 478.622 123.458 446.103C123.031 412.223 123.433 378.285 123.437 344.399L123.442 315.012C123.435 307.281 122.855 299.148 124.508 291.56C130.394 264.562 150.657 243.374 177.689 237.36C191.296 234.333 220.806 235.174 235.313 235.174L325.498 235.118Z"/>
</svg>
